<svg width="24" height="24" viewBox="0 0 24 24" xmlns="http://www.w3.org/2000/svg">
<path d="M4.52047 5.93311L1.39366 2.80631L2.80788 1.39209L22.6069 21.191L21.1927 22.6053L17.8827 19.2953C16.1814 20.374 14.1638 20.9987 12.0003 20.9987C6.60812 20.9987 2.12215 17.1189 1.18164 11.9987C1.61832 9.62136 2.81932 7.51144 4.52047 5.93311ZM14.7577 16.1703L13.2937 14.7063C12.902 14.8937 12.4634 14.9987 12.0003 14.9987C10.3434 14.9987 9.00026 13.6555 9.00026 11.9987C9.00026 11.5355 9.10522 11.0969 9.29263 10.7052L7.82866 9.24131C7.30514 10.0317 7.00026 10.9796 7.00026 11.9987C7.00026 14.7601 9.23884 16.9987 12.0003 16.9987C13.0193 16.9987 13.9672 16.6938 14.7577 16.1703ZM7.97446 3.75869C9.22127 3.26813 10.5793 2.9987 12.0003 2.9987C17.3924 2.9987 21.8784 6.87846 22.8189 11.9987C22.5067 13.6983 21.8038 15.2613 20.8068 16.591L16.947 12.7312C16.9821 12.4921 17.0003 12.2475 17.0003 11.9987C17.0003 9.23727 14.7617 6.9987 12.0003 6.9987C11.7514 6.9987 11.5068 7.01687 11.2677 7.05197L7.97446 3.75869Z" />
</svg>
